<?xml version="1.0" encoding="utf-8"?>
<svg id="Layer_1" x="0px" y="0px" width="141.7px" height="141.7px" viewBox="0 0 141.7 141.7" xmlns="http://www.w3.org/2000/svg">
  <g>
    <path d="M76.1,104.1c-2.3,0-4.4-1.5-5.6-2.5c-1.1,0.9-2.9,1.9-5,1.9c-1,0-1.9-0.2-2.8-0.6c-1.4,0.6-2.8,0.9-4.1,0.9&#10;&#9;&#9;c-3.9,0-6.8-2.5-8.7-4.2c-4.3-1.2-8.8-8-8.9-13.2c-1.2-1-2.1-2.7-2.7-4.9c-1.2-4.7-0.7-11,1-14.6c-0.4-1-0.6-2.5,0-4.6&#10;&#9;&#9;c1.3-4.3,5.5-9.8,9.8-11.6c1.7-3.5,6.2-8.4,9.1-9.8c1.3-0.6,2.8-1,4.2-1c3.4,0,6.3,1.8,7.9,3c1.6-1.6,4.9-4.3,8.4-3.7&#10;&#9;&#9;c4.4,0.7,9.6,5.4,12.7,11.3c3.6,1.5,9.9,8.3,9.5,15.6c2,2.4,2.5,7.5,2.2,11.8c-0.2,2.4-0.9,6.4-3,8.4c0,1.7-0.7,3.6-2,5.5&#10;&#9;&#9;c-2,2.8-5.1,5.3-7.6,6.2c-1,2.7-4.3,6-8.6,6c-1,0-2.1-0.2-3.1-0.6C78,103.9,77.1,104.1,76.1,104.1 M70.6,97.2l1.1,1.3&#10;&#9;&#9;c0.6,0.7,2.6,2.6,4.4,2.6c0.6,0,1.1-0.2,1.6-0.6l0.7-0.6l0.9,0.4c0.9,0.4,1.8,0.6,2.7,0.6c3.3,0,5.6-3,5.9-4.5l0.2-1l1-0.2&#10;&#9;&#9;c1.4-0.2,4.5-2.3,6.6-5.2c1.1-1.6,1.6-3.1,1.4-4.2l-0.2-1l0.9-0.5c1.2-0.7,2.1-3.3,2.4-6.7c0.4-4.6-0.6-8.8-1.7-9.8l-0.6-0.5&#10;&#9;&#9;l0.1-0.8c0.8-6.4-5.7-12.8-7.8-13.2l-0.7-0.2l-0.3-0.7c-2.6-5.2-7.2-9.6-10.8-10.2c-2.8-0.5-5.7,2.6-6.6,3.7l-1.1,1.4l-1.2-1.3&#10;&#9;&#9;c0,0-3.2-3.2-6.9-3.2c-1,0-2,0.2-2.9,0.7c-2.3,1.1-6.7,5.9-7.9,8.9l-0.3,0.7l-0.7,0.2c-3.5,1.1-7.4,6.1-8.5,9.8&#10;&#9;&#9;c-0.4,1.3-0.4,2.3,0,2.8l0.7,0.8l-0.6,0.9c-1.7,2.7-2.2,8.8-1.1,13.1c0.5,1.8,1.2,3.1,2,3.6l0.9,0.5l-0.1,1c-0.4,4,4,10.3,6.9,10.9&#10;&#9;&#9;l0.4,0.1l0.3,0.3c1.7,1.6,4,3.7,6.9,3.7c1.1,0,2.3-0.3,3.5-0.9l0.7-0.4l0.7,0.4c0.7,0.4,1.3,0.6,2,0.6c2.2,0,3.9-1.9,3.9-1.9&#10;&#9;&#9;L70.6,97.2z" style="fill: rgb(255, 255, 255);"/>
    <path d="M53.4,73.9c-0.9-2.1-4.1-6-5.4-6.3c-1.8-0.4-4.2,0.1-6.6,0.7l-0.8-2.9c3.1-0.8,5.7-1.2,8-0.7&#10;&#9;&#9;c2.9,0.6,6.5,5.9,7.5,8L53.4,73.9z" style="fill: rgb(255, 255, 255);"/>
    <path d="M42.9,87.1l-0.7-2.9c2.7-0.7,5.4-1.8,6-2.4c0.1-0.9-1.1-3.8-2.6-6.5l2.7-1.5c1.4,2.5,3.6,7.1,2.7,9.2&#10;&#9;&#9;C50.1,85,45.5,86.4,42.9,87.1" style="fill: rgb(255, 255, 255);"/>
    <path d="M58.2,84l-2.3-1.9c0.9-1.1,2.9-2.7,6.1-4.8l1.7,2.5C59.6,82.5,58.5,83.6,58.2,84" style="fill: rgb(255, 255, 255);"/>
    <path d="M70.1,84.2c-1.1-0.4-6.9-2.5-8.5-4.9c-1.5-2.2-1-7.4-0.9-8.4l3,0.3c-0.3,2.4-0.2,5.6,0.4,6.4&#10;&#9;&#9;c0.8,1.1,4.6,2.9,7,3.7L70.1,84.2z" style="fill: rgb(255, 255, 255);"/>
    <path d="M64.2,101.3l-3-0.3c0.1-1.3,0.2-5.3-0.6-7.5c-0.3-0.8-0.7-1-2.3-1.2l0.5-3c1.6,0.2,3.7,0.6,4.7,3.1&#10;&#9;&#9;C64.7,95.7,64.2,101.1,64.2,101.3" style="fill: rgb(255, 255, 255);"/>
    <path d="M62,64.7l-2.4-1.9c4.5-5.8,10.7-6,11-6l0.1,3l0-1.5l0,1.5C70.4,59.9,65.6,60.1,62,64.7" style="fill: rgb(255, 255, 255);"/>
    <path d="M54,60c-0.4,0-0.8-0.1-1.2-0.3c-2.2-1.2-3.5-6-3.9-7.5l2.9-0.7c0.6,2.3,1.6,4.8,2.2,5.4&#10;&#9;&#9;c1.1-0.6,3-2.5,4.5-4c1-1,2-2,2.9-2.9l2,2.2C62.6,53,61.7,54,60.7,55c-2.3,2.3-4.2,4.3-6,4.9C54.5,60,54.2,60,54,60" style="fill: rgb(255, 255, 255);"/>
    <path d="M88,73.9l-2.8-1.2c0.9-2.1,4.6-7.4,7.5-8c2.3-0.5,4.9-0.1,8,0.7l-0.8,2.9c-2.3-0.6-4.7-1.1-6.6-0.7&#10;&#9;&#9;C92.1,67.9,89,71.7,88,73.9" style="fill: rgb(255, 255, 255);"/>
    <path d="M98.5,87.1c-2.6-0.7-7.1-2.1-8-4.1c-0.9-2.1,1.3-6.6,2.7-9.2l2.7,1.5c-1.5,2.7-2.7,5.8-2.6,6.6&#10;&#9;&#9;c0.4,0.5,3.3,1.6,6,2.3L98.5,87.1z" style="fill: rgb(255, 255, 255);"/>
    <path d="M80.5,70.8c-0.2-0.2-1-1.1-4-3.2l1.7-2.5c2.4,1.6,4,2.9,4.7,3.7L80.5,70.8z" style="fill: rgb(255, 255, 255);"/>
    <path d="M71.6,71l-1-2.9c2.1-0.7,4.7-2,5.1-2.6c0.3-0.5,0.4-2.7,0.2-4.6l3-0.3c0.1,1.1,0.4,4.9-0.7,6.6&#10;&#9;&#9;C77.1,69,72.9,70.6,71.6,71" style="fill: rgb(255, 255, 255);"/>
    <path d="M87.5,97.6c-0.1-0.3-3-6.9-8.3-5.3l-0.9-2.9c6.4-1.9,10.6,3.8,12,7L87.5,97.6z" style="fill: rgb(255, 255, 255);"/>
    <path d="M78.6,81.8c-2.7-2.7-6.9-1.9-7-1.9L71,77c0.2,0,5.9-1.2,9.7,2.7L78.6,81.8z" style="fill: rgb(255, 255, 255);"/>
    <path d="M84.8,57.6c-0.3,0-0.6,0-0.9-0.1c-2.4-0.8-5.5-2.5-7-6l2.8-1.2c1,2.4,3.4,3.7,5.2,4.3&#10;&#9;&#9;c0.7,0.1,3.2-1.8,5.1-3.8l2.2,2.1C90.8,54.4,87.4,57.6,84.8,57.6" style="fill: rgb(255, 255, 255);"/>
    <rect x="69.4" y="43.7" width="3" height="57" style="fill: rgb(255, 255, 255);"/>
    <rect x="82.6" y="86.6" transform="matrix(0.9811 0.1934 -0.1934 0.9811 18.6796 -14.5958)" width="3" height="3.5" style="fill: rgb(255, 255, 255);"/>
    <rect x="61.3" y="88.7" transform="matrix(0.7708 0.6371 -0.6371 0.7708 72.0164 -19.2741)" width="3" height="3.5" style="fill: rgb(255, 255, 255);"/>
  </g>
  <ellipse cx="70.85" cy="70.85" rx="70" ry="70" style="fill: none; stroke: rgb(235, 246, 246);"/>
</svg>