<?xml version="1.0" encoding="utf-8"?>
<svg id="Layer_1" x="0px" y="0px" width="141.7px" height="141.7px" viewBox="0 0 141.7 141.7" xmlns="http://www.w3.org/2000/svg">
  <g>
    <path fill="#0FC8C3" d="M42.3,78.7h3.9c0.9,0,1.7,0.6,1.9,1.4l0.7,2.2c0.2,0.7,0.1,1.5-0.5,2.1L45.8,87c-0.8,0.8-1.2,1.8-1.2,2.9&#10;&#9;&#9;c0,1.1,0.4,2.1,1.2,2.9l3.8,3.8c0.8,0.8,1.8,1.2,2.9,1.2c1.1,0,2.1-0.4,2.9-1.2l2.6-2.6c0.5-0.5,1.4-0.7,2.1-0.5l2.2,0.7&#10;&#9;&#9;c0.8,0.3,1.4,1.1,1.4,1.9v3.9c0,2.2,1.8,4.1,4.1,4.1h6.1c2.2,0,4.1-1.8,4.1-4.1v-3.9c0-0.9,0.6-1.7,1.4-1.9l2.2-0.7&#10;&#9;&#9;c0.7-0.2,1.5,0,2.1,0.5l2.6,2.6c0.8,0.8,1.8,1.2,2.9,1.2s2.1-0.4,2.9-1.2l3.8-3.8c0.8-0.8,1.2-1.8,1.2-2.9c0-1.1-0.4-2.1-1.2-2.9&#10;&#9;&#9;l-2.6-2.6c-0.5-0.5-0.7-1.3-0.5-2.1l0.7-2.2c0.3-0.8,1.1-1.4,1.9-1.4h3.9c2.2,0,4.1-1.8,4.1-4.1v-6.1c0-2.2-1.8-4.1-4.1-4.1h-3.9&#10;&#9;&#9;c-0.9,0-1.7-0.6-1.9-1.4l-0.7-2.2c-0.2-0.7-0.1-1.5,0.5-2.1l2.6-2.6c0.8-0.8,1.2-1.8,1.2-2.9s-0.4-2.1-1.2-2.9l-3.8-3.8&#10;&#9;&#9;c-0.8-0.8-1.8-1.2-2.9-1.2s-2.1,0.4-2.9,1.2l-2.6,2.6c-0.5,0.5-1.4,0.7-2.1,0.5L79.2,49c-0.8-0.3-1.4-1.1-1.4-1.9v-3.9&#10;&#9;&#9;c0-2.2-1.8-4.1-4.1-4.1h-6.1c-2.2,0-4.1,1.8-4.1,4.1V47c0,0.9-0.6,1.7-1.4,1.9L60,49.7c-0.7,0.2-1.5,0-2.1-0.5l-2.6-2.6&#10;&#9;&#9;c-0.8-0.8-1.8-1.2-2.9-1.2c-1.1,0-2.1,0.4-2.9,1.2l-3.8,3.8c-0.8,0.8-1.2,1.8-1.2,2.9s0.4,2.1,1.2,2.9l2.6,2.6&#10;&#9;&#9;c0.5,0.5,0.7,1.3,0.5,2.1l-0.7,2.2c-0.3,0.8-1.1,1.4-1.9,1.4h-3.9c-2.2,0-4.1,1.8-4.1,4.1v6.1C38.2,76.9,40.1,78.7,42.3,78.7&#10;&#9;&#9; M40.3,68.5c0-1.1,0.9-2,2-2h3.9c1.8,0,3.3-1.1,3.9-2.8l0.7-2.2c0.5-1.5,0.1-3.1-1-4.2l-2.6-2.6c-0.4-0.4-0.6-0.9-0.6-1.4&#10;&#9;&#9;s0.2-1.1,0.6-1.4L51,48c0.8-0.8,2.1-0.8,2.9,0l2.6,2.6c1.1,1.1,2.7,1.5,4.2,1l2.2-0.7c1.7-0.6,2.8-2.1,2.8-3.9v-3.9&#10;&#9;&#9;c0-1.1,0.9-2,2-2h6.1c1.1,0,2,0.9,2,2V47c0,1.8,1.1,3.3,2.8,3.9l2.2,0.7c1.4,0.5,3.1,0.1,4.2-1l2.6-2.6c0.8-0.8,2.1-0.8,2.9,0&#10;&#9;&#9;l3.8,3.8c0.4,0.4,0.6,0.9,0.6,1.4s-0.2,1.1-0.6,1.4l-2.6,2.6c-1.1,1.1-1.5,2.7-1,4.2l0.7,2.2c0.6,1.7,2.1,2.8,3.9,2.8h3.9&#10;&#9;&#9;c1.1,0,2,0.9,2,2v6.1c0,1.1-0.9,2-2,2h-3.9c-1.8,0-3.3,1.1-3.9,2.8l-0.7,2.2c-0.5,1.5-0.1,3.1,1,4.2l2.6,2.6&#10;&#9;&#9;c0.4,0.4,0.6,0.9,0.6,1.4c0,0.5-0.2,1.1-0.6,1.4l-3.8,3.8c-0.8,0.8-2.1,0.8-2.9,0L85,92.5c-1.1-1.1-2.7-1.5-4.2-1l-2.2,0.7&#10;&#9;&#9;c-1.7,0.6-2.8,2.1-2.8,3.9v3.9c0,1.1-0.9,2-2,2h-6.1c-1.1,0-2-0.9-2-2v-3.9c0-1.8-1.1-3.3-2.8-3.9l-2.2-0.7&#10;&#9;&#9;c-0.4-0.1-0.8-0.2-1.3-0.2c-1.1,0-2.1,0.4-2.9,1.2l-2.6,2.6c-0.8,0.8-2.1,0.8-2.9,0l-3.8-3.8c-0.4-0.4-0.6-0.9-0.6-1.4&#10;&#9;&#9;c0-0.5,0.2-1.1,0.6-1.4l2.6-2.6c1.1-1.1,1.5-2.7,1-4.2L50,79.4c-0.6-1.7-2.1-2.8-3.9-2.8h-3.9c-1.1,0-2-0.9-2-2V68.5z"/>
    <path fill="#0FC8C3" d="M70.7,78.7L70.7,78.7c0.5,0,1.1-0.1,1.6-0.2c2.6-0.6,4.7-2.7,5.3-5.3c0.5-2.2,0-4.4-1.4-6.1&#10;&#9;&#9;c-1.7-2.1-4.5-3.1-7.2-2.5c-2.6,0.6-4.7,2.7-5.3,5.3c-0.5,2.2,0,4.4,1.4,6.1S68.6,78.7,70.7,78.7 M65.8,70.4&#10;&#9;&#9;c0.4-1.8,1.9-3.4,3.8-3.8c0.4-0.1,0.8-0.1,1.2-0.1c1.5,0,3,0.7,4,1.9c1,1.2,1.3,2.8,1,4.3c-0.4,1.8-1.9,3.4-3.8,3.8&#10;&#9;&#9;c-0.4,0.1-0.8,0.1-1.2,0.1h0c-1.5,0-3-0.7-4-1.9C65.8,73.5,65.4,72,65.8,70.4"/>
  </g>
  <ellipse cx="70.85" cy="70.85" rx="70" ry="70" style="fill: none; stroke: rgb(210, 236, 245);"/>
</svg>