<?xml version="1.0" encoding="utf-8"?>
<svg id="Layer_1" x="0px" y="0px" width="141.7px" height="141.7px" viewBox="0 0 141.7 141.7" xmlns="http://www.w3.org/2000/svg">
  <g>
    <path fill-rule="evenodd" clip-rule="evenodd" fill="#0FC8C3" d="M65.2,94.7c-0.5,0-1-0.4-1-1c0-0.5,0.4-1,1-1h11.6&#10;&#9;&#9;c0.5,0,1,0.4,1,1c0,0.5-0.4,1-1,1H65.2z"/>
    <path fill-rule="evenodd" clip-rule="evenodd" fill="#0FC8C3" d="M66.5,98.6c-0.5,0-1-0.5-1-1c0-0.5,0.4-1,1-1h9c0.5,0,1,0.4,1,1&#10;&#9;&#9;c0,0.5-0.5,1-1,1H66.5z"/>
    <path fill-rule="evenodd" clip-rule="evenodd" fill="#0FC8C3" d="M72,43.6c0,0.6-0.4,1-1,1c-0.5,0-1-0.4-1-1v-3.9c0-0.5,0.5-1,1-1&#10;&#9;&#9;c0.5,0,1,0.4,1,1V43.6z"/>
    <path fill-rule="evenodd" clip-rule="evenodd" fill="#0FC8C3" d="M83.6,54.2c3.2,3.2,5.2,7.7,5.2,12.6c0,1.9-0.3,3.8-0.9,5.5&#10;&#9;&#9;c-0.6,1.8-1.5,3.5-2.5,5c-1.8,2.5-3.3,4.2-4.5,5.4c-2.1,2.3-3,3.3-3,6.7c0,0.5-0.4,1-1,1H65.2c-0.6,0-1-0.4-1-1&#10;&#9;&#9;c0-3.3-0.9-4.3-3-6.6c-1.2-1.3-2.7-2.9-4.6-5.5c-1.1-1.5-2-3.2-2.5-5c-0.6-1.7-0.9-3.6-0.9-5.5c0-2.4,0.5-4.7,1.3-6.8l0,0&#10;&#9;&#9;c0.9-2.2,2.2-4.1,3.8-5.7c1.6-1.6,3.6-2.9,5.8-3.9c2.1-0.9,4.4-1.3,6.8-1.3c2.4,0,4.7,0.5,6.8,1.3C80,51.3,82,52.6,83.6,54.2&#10;&#9;&#9; M86.8,66.8c0-4.4-1.8-8.3-4.6-11.2c-1.5-1.5-3.2-2.6-5.1-3.4c-1.9-0.8-3.9-1.2-6-1.2c-2.1,0-4.2,0.4-6,1.2c-1.9,0.8-3.7,2-5.1,3.4&#10;&#9;&#9;c-1.4,1.4-2.6,3.2-3.4,5.1l0,0c-0.8,1.8-1.2,3.9-1.2,6c0,1.7,0.3,3.4,0.8,4.9c0.5,1.6,1.3,3.1,2.3,4.4c1.8,2.5,3.3,4.1,4.4,5.3v0&#10;&#9;&#9;c2.2,2.4,3.3,3.6,3.5,6.9h9.7c0.2-3.3,1.3-4.5,3.5-7c1.1-1.2,2.6-2.8,4.3-5.3c1-1.3,1.7-2.8,2.3-4.4C86.5,70.1,86.8,68.5,86.8,66.8&#10;&#9;&#9;"/>
    <path fill-rule="evenodd" clip-rule="evenodd" fill="#0FC8C3" d="M67.8,102.6c-0.5,0-1-0.4-1-1c0-0.5,0.4-1,1-1h6.4&#10;&#9;&#9;c0.6,0,1,0.4,1,1c0,0.5-0.4,1-1,1H67.8z"/>
    <path fill-rule="evenodd" clip-rule="evenodd" fill="#0FC8C3" d="M83.3,47.1c-0.3,0.5-0.9,0.6-1.4,0.4c-0.5-0.3-0.6-0.9-0.4-1.4&#10;&#9;&#9;l1.9-3.4c0.3-0.5,0.9-0.6,1.3-0.4c0.5,0.3,0.6,0.9,0.4,1.3L83.3,47.1z"/>
    <path fill-rule="evenodd" clip-rule="evenodd" fill="#0FC8C3" d="M60.5,46.1c0.3,0.5,0.1,1.1-0.4,1.4c-0.5,0.3-1.1,0.1-1.3-0.4&#10;&#9;&#9;l-1.9-3.4c-0.3-0.5-0.1-1.1,0.4-1.3c0.5-0.3,1.1-0.1,1.4,0.4L60.5,46.1z"/>
    <path fill-rule="evenodd" clip-rule="evenodd" fill="#0FC8C3" d="M51.8,54.1c0.5,0.3,0.6,0.9,0.4,1.3c-0.3,0.5-0.9,0.6-1.4,0.4&#10;&#9;&#9;l-3.4-1.9c-0.5-0.3-0.6-0.9-0.4-1.4c0.3-0.5,0.9-0.6,1.4-0.4L51.8,54.1z"/>
    <path fill-rule="evenodd" clip-rule="evenodd" fill="#0FC8C3" d="M91.3,55.8c-0.5,0.3-1.1,0.1-1.3-0.4c-0.3-0.5-0.1-1.1,0.4-1.3&#10;&#9;&#9;l3.4-1.9c0.5-0.3,1.1-0.1,1.4,0.4c0.3,0.5,0.1,1.1-0.4,1.4L91.3,55.8z"/>
    <path fill-rule="evenodd" clip-rule="evenodd" fill="#0FC8C3" d="M60.7,70.7c0.2,0.5,0,1.1-0.5,1.3c-0.5,0.2-1.1,0-1.3-0.5&#10;&#9;&#9;c-0.3-0.8-0.6-1.6-0.8-2.5c-0.2-0.9-0.3-1.7-0.3-2.6c0-0.5,0.4-1,1-1c0.5,0,1,0.5,1,1c0,0.8,0.1,1.5,0.2,2.2&#10;&#9;&#9;C60.2,69.3,60.4,70,60.7,70.7 M60.7,62c-0.2,0.5-0.8,0.7-1.3,0.5c-0.5-0.2-0.7-0.8-0.5-1.3c0.3-0.8,0.7-1.5,1.2-2.2l0,0h0&#10;&#9;&#9;c0.5-0.7,1-1.4,1.6-2c0.6-0.6,1.3-1.1,2-1.6v0c0.7-0.5,1.5-0.9,2.2-1.2c0.8-0.3,1.6-0.6,2.5-0.8c0.9-0.2,1.7-0.3,2.6-0.3&#10;&#9;&#9;c0.5,0,1,0.4,1,1c0,0.5-0.4,1-1,1c-0.8,0-1.5,0.1-2.2,0.2c-0.7,0.2-1.5,0.4-2.1,0.7c-0.7,0.3-1.3,0.6-1.9,1&#10;&#9;&#9;c-0.6,0.4-1.1,0.9-1.7,1.4c-0.5,0.5-1,1.1-1.4,1.7C61.3,60.7,60.9,61.3,60.7,62"/>
  </g>
  <ellipse cx="70.85" cy="70.85" rx="70" ry="70" style="fill: none; stroke: rgb(210, 236, 245);"/>
</svg>