<?xml version="1.0" encoding="utf-8"?>
<svg id="Layer_1" x="0px" y="0px" width="141.7px" height="141.7px" viewBox="0 0 141.7 141.7" xmlns="http://www.w3.org/2000/svg">
  <path fill="#0FC8C3" d="M93.8,77.2c0.3,0,0.5,0,0.8-0.1c1.6-0.3,2.8-1.5,3.1-3.1c0.2-1.2-0.1-2.4-0.8-3.3c-0.9-1.1-2.4-1.6-3.8-1.4&#10;&#9;c-1.6,0.3-2.8,1.5-3.1,3.1c-0.2,1,0,2,0.5,2.8l-9.9,10.8c-0.9-0.8-2.1-1.1-3.3-0.9c-0.2,0-0.3,0.1-0.4,0.1L63.4,46.1&#10;&#9;c0.4-0.5,0.6-1,0.7-1.6c0.2-1.2-0.1-2.4-0.8-3.3c-0.9-1.1-2.4-1.6-3.8-1.4c-1.6,0.3-2.8,1.5-3.1,3.1c-0.2,1.1,0,2.1,0.6,3L45.8,66.4&#10;&#9;c-0.4,0-0.8,0-1.2,0c-1.6,0.3-2.8,1.5-3.1,3.1c-0.2,1.2,0.1,2.4,0.8,3.3c0.8,0.9,1.9,1.4,3,1.4c0.3,0,0.5,0,0.8-0.1&#10;&#9;c1.6-0.3,2.8-1.5,3.1-3.1c0.2-1.2-0.1-2.4-0.8-3.3c-0.2-0.3-0.5-0.5-0.8-0.7l10.8-19.9c0.5,0.3,1.1,0.4,1.7,0.4c0.3,0,0.5,0,0.8-0.1&#10;&#9;c0.3,0,0.5-0.1,0.7-0.2l13.3,39.1c-0.5,0.5-0.8,1.2-1,1.9c-0.2,1.2,0.1,2.4,0.8,3.3c0.8,0.9,1.9,1.4,3,1.4c0.3,0,0.5,0,0.8-0.1&#10;&#9;c1.6-0.3,2.8-1.5,3.1-3.1c0.1-0.7,0.1-1.4-0.2-2.1l10.1-11.1C92.4,77,93.1,77.2,93.8,77.2 M47.4,70.7c-0.1,0.8-0.8,1.4-1.5,1.5&#10;&#9;c-0.1,0-0.3,0-0.4,0c-0.6,0-1.1-0.3-1.5-0.7c-0.4-0.5-0.5-1-0.4-1.7c0.1-0.8,0.8-1.4,1.5-1.5c0.1,0,0.3,0,0.4,0&#10;&#9;c0.6,0,1.1,0.3,1.5,0.7C47.3,69.5,47.5,70.1,47.4,70.7 M91.9,72.9c0.1-0.8,0.8-1.4,1.5-1.5c0.1,0,0.3,0,0.4,0c0.6,0,1.1,0.3,1.5,0.7&#10;&#9;c0.4,0.5,0.5,1,0.4,1.7c-0.1,0.8-0.8,1.4-1.5,1.5c-0.1,0-0.3,0-0.4,0c-0.6,0-1.1-0.3-1.5-0.7C91.9,74.1,91.8,73.5,91.9,72.9&#10;&#9; M60.6,45.6c-0.1,0-0.3,0-0.4,0c-0.6,0-1.1-0.3-1.5-0.7c-0.4-0.5-0.5-1-0.4-1.7c0.1-0.8,0.8-1.4,1.5-1.5c0.1,0,0.3,0,0.4,0&#10;&#9;c0.6,0,1.1,0.3,1.5,0.7c0.4,0.5,0.5,1,0.4,1.7C62,44.8,61.4,45.5,60.6,45.6 M79.9,89.5c-0.1,0.8-0.8,1.4-1.5,1.5c-0.1,0-0.3,0-0.4,0&#10;&#9;c-0.6,0-1.1-0.3-1.5-0.7c-0.4-0.5-0.5-1-0.4-1.7c0.1-0.8,0.8-1.4,1.5-1.5c0.1,0,0.3,0,0.4,0c0.6,0,1.1,0.3,1.5,0.7&#10;&#9;C79.9,88.3,80.1,88.9,79.9,89.5 M102.6,98.2c0-1.6-1.3-2.8-2.8-2.8H41.5c-1.6,0-2.8,1.3-2.8,2.8v2.3c0,1.6,1.3,2.8,2.8,2.8h58.3&#10;&#9;c1.6,0,2.8-1.3,2.8-2.8V98.2z M100.6,100.5c0,0.5-0.4,0.9-0.9,0.9H41.5c-0.5,0-0.9-0.4-0.9-0.9v-2.3c0-0.5,0.4-0.9,0.9-0.9h58.3&#10;&#9;c0.5,0,0.9,0.4,0.9,0.9V100.5z"/>
  <ellipse cx="70.85" cy="70.85" rx="70" ry="70" style="fill: none; stroke: rgb(210, 236, 245);"/>
</svg>