<?xml version="1.0" encoding="utf-8"?>
<svg id="Layer_1" x="0px" y="0px" width="141.7px" height="141.7px" viewBox="0 0 141.7 141.7" xmlns="http://www.w3.org/2000/svg">
  <path d="M75.5,44.3c0-2.2-1.8-4-4-4H43.8c-2.2,0-4,1.8-4,4v54.5c0,2.2,1.8,4,4,4h27.7c2.2,0,4-1.8,4-4V44.3z&#10;&#9; M42,44.8c0-1,1.1-2.1,2.1-2.1h27.3c1,0,1.8,1.2,1.8,2.1v4.5H42V44.8z M73.2,91.6H42V51.5h31.2V91.6z M73.2,98.4&#10;&#9;c0,1-0.9,2.1-1.8,2.1H44.1c-1,0-2.1-1.2-2.1-2.1v-4.5h31.2V98.4z M65.5,46c0,0.6-0.5,1.1-1.1,1.1h-11c-0.6,0-1.1-0.5-1.1-1.1&#10;&#9;s0.5-1.1,1.1-1.1h11C65,44.8,65.5,45.4,65.5,46 M55.6,96.8c0-1.2,1-2.2,2.2-2.2c1.2,0,2.2,1,2.2,2.2S59,99,57.8,99&#10;&#9;C56.5,99,55.6,98.1,55.6,96.8 M91.2,86.6c-0.2,0.2-0.5,0.3-0.8,0.3s-0.6-0.1-0.8-0.3c-0.4-0.4-0.4-1.1,0-1.6&#10;&#9;c8.6-8.6,8.6-22.6,0-31.2c-0.4-0.4-0.4-1.1,0-1.6s1.1-0.4,1.6,0C100.6,61.8,100.6,77.2,91.2,86.6 M86.9,82.4&#10;&#9;c-0.2,0.2-0.5,0.3-0.8,0.3s-0.6-0.1-0.8-0.3c-0.4-0.4-0.4-1.1,0-1.6c6.3-6.3,6.3-16.5,0-22.7c-0.4-0.4-0.4-1.1,0-1.6&#10;&#9;c0.4-0.4,1.1-0.4,1.6,0C94.1,63.7,94.1,75.3,86.9,82.4 M82.7,78.2c-0.2,0.2-0.5,0.3-0.8,0.3c-0.3,0-0.6-0.1-0.8-0.3&#10;&#9;c-0.4-0.4-0.4-1.1,0-1.6c3.9-3.9,3.9-10.3,0-14.3c-0.4-0.4-0.4-1.1,0-1.6c0.4-0.4,1.1-0.4,1.6,0C87.5,65.6,87.5,73.4,82.7,78.2" style="fill: rgb(255, 255, 255);"/>
  <ellipse cx="70.85" cy="70.85" rx="70" ry="70" style="fill: none; stroke: rgb(235, 246, 246);"/>
</svg>